<?xml version="1.0" encoding="UTF-8"?>
<svg width="630px" height="630px" viewBox="0 0 630 630" version="1.1" xmlns="http://www.w3.org/2000/svg" xmlns:xlink="http://www.w3.org/1999/xlink">
    <!-- Generator: Sketch 50.2 (55047) - http://www.bohemiancoding.com/sketch -->
    <title>Artboard 1 Copy</title>
    <desc>Created with Sketch.</desc>
    <defs>
        <polygon id="path-1" points="0.231335559 189.478668 160.02132 189.478668 160.02132 0.0610839485 0.231335559 0.0610839485"></polygon>
        <polygon id="path-3" points="0.442831661 189.478668 138.510606 189.478668 138.510606 0.0610839485 0.442831661 0.0610839485"></polygon>
        <polygon id="path-5" points="0.406646487 189.478668 198.186072 189.478668 198.186072 0.0615825929 0.406646487 0.0615825929"></polygon>
        <polygon id="path-7" points="87.3522572 277.367874 87.3522572 0.617695846 0.635236964 0.617695846 0.635236964 277.367874 87.3522572 277.367874"></polygon>
        <polygon id="path-9" points="138.917625 0.720319976 0.684564542 0.720319976 0.684564542 176.831351 138.917625 176.831351"></polygon>
        <polygon id="path-11" points="0 0.88 381.8236 0.88 381.8236 225.982 0 225.982"></polygon>
    </defs>
    <g id="Artboard-1-Copy" stroke="none" stroke-width="1" fill="none" fill-rule="evenodd">
        <g id="Group-2" transform="translate(0.000000, -1.000000)">
            <g id="Group" transform="translate(26.000000, 73.000000)">
                <g id="Control-Tote_no-shadow">
                    <path d="M1,38.334471 L1,0.715585893 L539.511941,0.715585893 L539.511941,23 L540,23 L540,558 L1,558 L1,38.334471 Z" id="Fill-1" fill="#F1EEE8"></path>
                    <g id="Group-51" transform="translate(0.124371, 159.064846)">
                        <g id="Group-39" transform="translate(215.863278, 209.430680)">
                            <mask id="mask-2" fill="white">
                                <use xlink:href="#path-1"></use>
                            </mask>
                            <g id="Clip-38"></g>
                            <path d="M0.832758102,0.0610839485 L134.685459,0.0610839485 L151.915841,38.3245679 C151.915841,38.3245679 133.010959,18.2217158 91.0236798,18.2217158 L46.9788368,18.2217158 L46.9788368,134.631516 L100.419347,134.631516 C119.857024,134.631516 125.867507,132.88252 133.33413,125.429032 L133.33413,164.576363 C133.33413,164.576363 127.866426,153.120006 100.419347,153.120006 L46.9788368,153.120006 L46.9788368,308.107436 L79.280967,308.107436 C137.50915,308.107436 160.02132,290.597535 160.02132,290.597535 L130.524164,330.426763 L0.231335559,330.461668 L0.832758102,0.0610839485 Z" id="Fill-37" fill="#1D1B1A" mask="url(#mask-2)"></path>
                        </g>
                        <g id="Group-42" transform="translate(400.532441, 209.430680)">
                            <mask id="mask-4" fill="white">
                                <use xlink:href="#path-3"></use>
                            </mask>
                            <g id="Clip-41"></g>
                            <path d="M1.05797961,0.0610839485 L78.6402399,0.0610839485 C119.457116,0.0610839485 153.556027,23.7030652 153.556027,67.385568 C153.556027,118.884323 115.585302,132.254228 89.7228852,140.461916 C136.73616,148.293128 153.998984,170.796953 153.998984,233.909138 C153.998984,296.891675 170.032759,320.276855 184.488112,320.276855 C195.613181,320.276855 204.296375,312.945534 207.395822,307.893019 L213.84427,312.304776 C211.960145,315.261738 198.908528,335.779711 168.626528,335.779711 C138.485526,335.779711 115.430579,307.880553 115.430579,242.32875 C115.430579,147.551394 89.7890167,145.777466 69.3319159,145.777466 L69.3319159,138.690482 C69.9483116,138.547121 113.219541,129.297266 113.219541,76.2427406 C113.219541,26.0803528 83.0722998,18.2217158 70.6582897,18.2217158 L48.4929991,18.2217158 L48.4929991,330.461668 L0.442831661,330.461668 L1.05797961,0.0610839485 Z" id="Fill-40" fill="#1D1B1A" mask="url(#mask-4)"></path>
                        </g>
                        <g id="Group-45" transform="translate(0.000000, 209.430680)">
                            <mask id="mask-6" fill="white">
                                <use xlink:href="#path-5"></use>
                            </mask>
                            <g id="Clip-44"></g>
                            <path d="M138.340786,233.909636 C138.340786,296.889681 154.367074,320.277353 168.817436,320.277353 C179.938762,320.277353 188.628195,312.933567 191.71766,307.892271 L198.186072,312.304028 C196.279488,315.256003 183.229117,335.77273 152.967082,335.77273 C122.817346,335.77273 99.7711336,307.874818 99.7711336,242.324262 L99.7711336,229.040373 C99.7711336,189.970332 97.8620538,159.494428 91.0729665,139.533689 C85.8311074,124.09067 66.8164224,112.559517 58.6560419,112.559517 L48.4593095,112.56575 L48.4593095,330.462167 L0.406646487,330.462167 L1.02428997,0.0615825929 L48.4593095,0.0615825929 L48.4593095,97.5016999 L135.348646,0.0615825929 L166.375561,0.0615825929 L75.1165526,102.399635 C122.12858,110.2296 138.340786,145.245662 138.340786,221.069541 L138.340786,233.909636 Z" id="Fill-43" fill="#1D1B1A" mask="url(#mask-6)"></path>
                        </g>
                        <path d="M269.644428,0.0159566233 C363.50253,0.0159566233 420.531612,66.1175151 420.531612,139.582806 C420.531612,234.422492 369.01765,294.046659 271.852972,294.046659 C174.67332,294.046659 116.698433,220.678604 116.698433,147.856564 C116.698433,65.6662419 177.987383,0.0159566233 269.644428,0.0159566233 M157.004973,141.790554 C157.004973,205.548484 192.940594,275.290147 274.608036,275.290147 C350.067849,275.290147 380.076587,213.490644 380.076587,143.439821 C380.076587,87.2563011 341.977343,16.0187045 267.982406,16.0187045 C216.139034,16.0187045 157.004973,56.8876059 157.004973,141.790554" id="Fill-46" fill="#1D1B1A"></path>
                        <g id="Group-50" transform="translate(451.690790, 8.726278)">
                            <mask id="mask-8" fill="white">
                                <use xlink:href="#path-7"></use>
                            </mask>
                            <g id="Clip-49"></g>
                            <path d="M1.14432493,0.617695846 L65.0935091,0.617695846 C98.7369863,0.617695846 126.851619,20.1072152 126.851619,56.1155796 C126.851619,98.5701704 95.5564343,109.59146 74.2283938,116.358065 C112.986458,122.813018 127.219709,141.363839 127.219709,193.391158 C127.219709,245.311267 140.433536,264.587616 152.345945,264.587616 C161.522006,264.587616 168.679184,258.544045 171.235854,254.379117 L176.556322,258.016728 C174.995368,260.453853 164.23839,277.367874 139.283097,277.367874 C114.428874,277.367874 95.4304101,254.370391 95.4304101,200.332289 C95.4304101,122.200932 74.285791,120.738657 57.4210045,120.738657 L57.4210045,114.897037 C57.9288447,114.778609 93.5974439,107.154335 93.5974439,63.4182279 C93.5974439,22.066888 68.7482116,15.5894963 58.5177896,15.5894963 L40.243029,15.5894963 L40.243029,272.984789 L0.635236964,272.984789 L1.14432493,0.617695846 Z" id="Fill-48" fill="#1D1B1A" mask="url(#mask-8)"></path>
                        </g>
                    </g>
                    <polygon id="Fill-6" fill="#1D1B1A" points="177.052716 288.5438 180.189087 288.5438 193.380848 305.386183 193.380848 288.5438 195.389676 288.5438 195.389676 314.789534 179.077794 293.644241 179.077794 314.447913 177.001464 314.449169"></polygon>
                    <g id="Group-31" transform="translate(24.641988, 40.084187)" fill="#1D1B1A">
                        <path d="M174.867427,249.38439 L184.238605,249.38439 L185.577344,252.369023 C185.577344,252.369023 184.006972,250.801122 181.06548,250.801122 L178.793981,250.801122 L178.793981,259.878704 L182.602229,259.878704 C184.537486,259.878704 184.823914,259.688807 185.577344,258.932967 L185.577344,262.764641 C185.577344,262.764641 184.73425,261.470342 182.602229,261.470342 L178.793981,261.470342 L178.793981,273.408874 L184.090409,273.408874 C189.221207,273.408874 191.841401,271.270033 191.841401,271.270033 L189.958448,275.150431 L174.820104,275.152929 L174.867427,249.38439 Z" id="Fill-7"></path>
                        <path d="M305.136016,249.38439 L315.533354,249.38439 L316.872093,252.369023 C316.872093,252.369023 315.403838,250.801122 312.142295,250.801122 L308.721348,250.801122 L308.721348,259.878704 L312.870818,259.878704 C314.38266,259.878704 314.848417,259.742528 315.428745,259.161593 L315.428745,262.214939 C315.428745,262.214939 315.004085,261.321673 312.870818,261.321673 L308.721348,261.321673 L308.721348,273.408874 L311.230707,273.408874 C315.753779,273.408874 317.50099,272.043364 317.50099,272.043364 L315.210811,275.150431 L305.088693,275.152929 L305.136016,249.38439 Z" id="Fill-9"></path>
                        <polygon id="Fill-11" points="186.733642 249.38439 190.693821 249.38439 199.231867 268.279153 201.022665 264.307555 194.480897 249.38439 198.267974 249.38439 203.020189 259.471425 207.565677 249.38439 209.493462 249.38439 204.087445 262.199947 206.84089 268.279153 215.139831 249.38439 217.446199 249.38439 206.01523 275.359068 202.055051 266.932383 198.198235 275.394049"></polygon>
                        <path d="M253.155804,248.500494 C262.000204,248.500494 267.372597,254.755855 267.372597,261.70584 C267.372597,270.679728 262.51951,276.320422 253.365021,276.320422 C244.206796,276.320422 238.744738,269.379182 238.744738,262.489165 C238.744738,254.712129 244.520622,248.500494 253.155804,248.500494 M242.543023,261.915726 C242.543023,267.947458 245.9291,274.543884 253.622806,274.543884 C260.733694,274.543884 263.560614,268.698301 263.560614,262.070642 C263.560614,256.754772 259.971546,250.014674 252.998891,250.014674 C248.114671,250.014674 242.543023,253.882578 242.543023,261.915726" id="Fill-13"></path>
                        <path d="M270.416829,249.38439 L276.441781,249.38439 C279.61366,249.38439 282.261251,251.227142 282.261251,254.634046 C282.261251,258.651869 279.311042,259.693805 277.30231,260.334707 C280.95489,260.945626 282.294875,262.700925 282.294875,267.622009 C282.294875,272.534348 283.540214,274.359609 284.662265,274.359609 C285.527776,274.359609 286.20275,273.78617 286.4431,273.393882 L286.943727,273.737446 C286.798022,273.968571 285.78307,275.567705 283.430624,275.567705 C281.090632,275.567705 279.301079,273.392633 279.301079,268.279153 C279.301079,260.885659 277.308537,260.748233 275.719484,260.748233 L275.719484,260.197282 C275.769297,260.184789 279.127977,259.46268 279.127977,255.324922 C279.127977,251.41454 276.785494,250.801122 275.821602,250.801122 L274.100543,250.801122 L274.100543,275.152929 L270.369506,275.152929 L270.416829,249.38439 Z" id="Fill-15"></path>
                        <path d="M319.188549,249.38439 L325.2135,249.38439 C328.38538,249.38439 331.032971,251.227142 331.032971,254.634046 C331.032971,258.651869 328.085253,259.693805 326.07403,260.334707 C329.72661,260.945626 331.06784,262.700925 331.06784,267.622009 C331.06784,272.534348 332.311934,274.359609 333.436476,274.359609 C334.299496,274.359609 334.97447,273.78617 335.216065,273.393882 L335.715446,273.737446 C335.569742,273.968571 334.55479,275.567705 332.202344,275.567705 C329.862352,275.567705 328.072799,273.392633 328.072799,268.279153 C328.072799,260.885659 326.080257,260.748233 324.491204,260.748233 L324.491204,260.197282 C324.538527,260.184789 327.899697,259.46268 327.899697,255.324922 C327.899697,251.41454 325.559705,250.801122 324.595812,250.801122 L322.872263,250.801122 L322.872263,275.152929 L319.141226,275.152929 L319.188549,249.38439 Z" id="Fill-17"></path>
                        <path d="M299.049794,267.621884 C299.049794,272.534223 300.296379,274.356986 301.418429,274.356986 C302.28145,274.356986 302.956423,273.786045 303.196774,273.391259 L303.699891,273.736072 C303.55045,273.967197 302.536744,275.56758 300.186789,275.56758 C297.844306,275.56758 296.054753,273.391259 296.054753,268.279028 L296.054753,267.244589 C296.054753,264.19624 295.907803,261.818778 295.378534,260.262122 C294.971308,259.056525 293.494336,258.158262 292.860458,258.158262 L292.068422,258.158262 L292.068422,275.152804 L288.337386,275.152804 L288.383463,249.384265 L292.068422,249.384265 L292.068422,256.983898 L298.818161,249.384265 L301.229138,249.384265 L294.139421,257.364941 C297.792001,257.97586 299.049794,260.70813 299.049794,266.621177 L299.049794,267.621884 Z" id="Fill-19"></path>
                        <polygon id="Fill-21" points="241.017233 233.414292 242.98736 233.414292 242.98736 238.028043 247.41205 238.028043 247.41205 233.414292 249.384668 233.414292 249.384668 244.167217 247.41205 244.167217 247.41205 238.858843 242.98736 238.858843 242.98736 244.167217 241.017233 244.167217"></polygon>
                        <path d="M253.055803,233.414292 L258.033425,233.414292 L258.657339,234.975946 C258.657339,234.975946 257.651105,234.216358 256.822955,234.216358 L254.991061,234.216358 L254.991061,237.993062 L256.614983,237.993062 C257.531553,237.993062 257.790583,237.575788 257.790583,237.575788 L257.790583,239.309848 C257.790583,239.309848 257.515363,238.823861 256.614983,238.823861 L254.991061,238.823861 L254.991061,243.365151 L257.272522,243.365151 C259.003544,243.365151 259.727086,242.431907 259.727086,242.431907 L258.861575,244.167217 L253.055803,244.167217 L253.055803,233.414292 Z" id="Fill-23"></path>
                        <path d="M234.682068,234.216358 L235.720681,234.216358 C237.334641,234.216358 238.623567,235.358239 238.623567,235.358239 L238.043239,233.414292 L229.281032,233.414292 L228.701949,235.358239 C228.701949,235.358239 229.988384,234.216358 231.60608,234.216358 L232.642202,234.216358 L232.642202,244.167217 L234.682068,244.167217 L234.682068,234.216358 Z" id="Fill-25"></path>
                        <polygon id="Fill-27" points="233.449556 275.152804 233.449556 261.850011 240.605275 249.384265 238.29268 249.384265 231.498109 261.221602 224.702293 249.384265 222.388452 249.384265 229.546662 261.850011 229.546662 275.152804"></polygon>
                        <polygon id="Fill-29" points="133.297753 0.725107156 133.297753 104.531368 51.8724901 0.725107156 0.901999232 0.725107156 0.550813558 177.884127 17.3741017 177.880379 17.3741017 9.5078489 149.590526 180.640134 149.590526 0.725107156"></polygon>
                    </g>
                    <g id="Group-34" transform="translate(201.519081, 40.084187)">
                        <mask id="mask-10" fill="white">
                            <use xlink:href="#path-9"></use>
                        </mask>
                        <g id="Clip-33"></g>
                        <path d="M1.06867648,-31.5832987 L77.1725631,-31.5832987 L88.0470331,-7.44761178 C88.0470331,-7.44761178 75.2930251,-20.1252434 51.4022571,-20.1252434 L32.9574257,-20.1252434 L32.9574257,53.3026847 L63.8852735,53.3026847 C79.5990566,53.3026847 81.931076,51.767658 88.0470331,45.6623252 L88.0470331,76.6323584 C88.0470331,76.6323584 81.2001446,66.1740575 63.8852735,66.1740575 L32.9574257,66.1740575 L32.9574257,162.729224 L75.9655318,162.729224 C117.642298,162.729224 138.917625,145.429126 138.917625,145.429126 L123.61903,176.808996 L0.684564542,176.831351 L1.06867648,-31.5832987 Z" id="Fill-32" fill="#1D1B1A" mask="url(#mask-10)"></path>
                    </g>
                    <polygon id="Fill-35" fill="#1D1B1A" points="516.373259 40.9590444 463.065455 161.748766 440.621639 112.467187 470.934506 40.9590444 454.29491 40.9590444 431.932141 90.3464286 408.550672 40.9590444 376.630578 40.9590444 415.660375 129.546638 401.074388 161.748766 346.219208 40.9590444 313.599615 40.9590444 392.659204 219.430034 424.076806 150.829668 456.333557 219.152451 535.133795 40.9590444"></polygon>
                    <polygon id="Fill-52" fill="#1D1B1A" points="112.280434 167.813424 40.4772966 293.204908 0.124370827 222.741613 0.124370827 265.417869 19.846753 299.859956 19.846753 440.769056 61.1016284 440.769056 61.1016284 299.859956 136.722522 167.813424"></polygon>
                </g>
            </g>
            <g id="Group-59" transform="translate(0.000000, 0.120000)">
                <path d="M16.8147,160.0996 C16.8147,160.0996 19.1857,148.9026 26.5247,142.8676 L26.7437,115.9496 L17.0237,125.7726 C17.0237,125.7726 12.6287,143.5636 16.8147,160.0996" id="Fill-52" fill="#878276"></path>
                <path d="M360.5262,9.4371 C387.8312,26.8011 386.9512,56.2911 386.9512,72.3911 L415.4502,72.3911 C415.4502,72.3911 417.6722,25.0801 360.5262,9.4371" id="Fill-54" fill="#F1EEE8"></path>
                <g id="Group-58">
                    <mask id="mask-12" fill="white">
                        <use xlink:href="#path-11"></use>
                    </mask>
                    <g id="Clip-57"></g>
                    <path d="M64.8676,192.984 C-0.7314,192.984 16.3286,127.032 16.3676,126.391 C10.0366,133.282 -0.0004,147.541 -0.0004,165.539 C-0.0004,184.82 5.6356,225.982 69.3676,225.982 C170.8676,225.982 238.4586,15.105 328.4546,15.105 C363.7816,15.105 381.8236,35.218 381.8236,35.218 C373.0316,14.829 355.1036,0.88 326.9546,0.88 C198.2796,0.88 152.2666,192.984 64.8676,192.984" id="Fill-56" fill="#DBD8D2" mask="url(#mask-12)"></path>
                </g>
            </g>
        </g>
    </g>
</svg>